<?xml version="1.0" standalone="no"?>
<!DOCTYPE svg PUBLIC "-//W3C//DTD SVG 20010904//EN"
 "http://www.w3.org/TR/2001/REC-SVG-20010904/DTD/svg10.dtd">
<svg version="1.0" xmlns="http://www.w3.org/2000/svg"
 width="1280.000000pt" height="640.000000pt" viewBox="0 0 1280.000000 640.000000"
 preserveAspectRatio="xMidYMid meet">
<metadata>
Created by potrace 1.15, written by Peter Selinger 2001-2017
</metadata>
<g transform="translate(0.000000,640.000000) scale(0.100000,-0.100000)"
fill="#555548" stroke="none">
<path d="M8582 5751 c-1 -24 -29 -180 -62 -348 -55 -276 -62 -324 -74 -524
l-13 -220 -60 -62 c-80 -82 -139 -156 -223 -283 -77 -114 -195 -320 -229 -400
-22 -50 -25 -52 -89 -74 -37 -12 -92 -37 -123 -56 -74 -44 -83 -44 -75 4 3 20
6 48 6 61 0 22 2 23 48 16 26 -3 58 -9 72 -11 45 -9 -1 12 -57 27 -62 15 -60
-4 -33 219 11 94 20 228 20 312 l0 147 49 58 c26 32 83 91 125 132 42 40 76
75 76 78 0 10 -157 -80 -197 -114 l-43 -34 0 41 c0 41 1 42 28 37 l27 -6 -29
12 -29 12 6 92 c3 56 2 91 -4 88 -5 -4 -9 -19 -9 -35 0 -16 -5 -51 -12 -79
-13 -57 -15 -58 -98 -36 -90 24 -228 20 -317 -10 -102 -35 -154 -67 -240 -149
-126 -118 -222 -267 -318 -489 -48 -111 -75 -152 -75 -113 0 8 14 80 30 159
34 163 37 195 11 122 -10 -27 -38 -90 -62 -140 l-44 -90 -5 260 c-3 143 -8
252 -12 242 -5 -10 -8 -31 -8 -46 0 -22 -83 -458 -105 -548 -4 -19 -61 -50
-72 -39 -3 2 5 59 16 127 22 128 22 168 1 77 -7 -29 -33 -96 -57 -149 -45 -96
-46 -97 -123 -148 -43 -28 -117 -89 -164 -135 -64 -63 -86 -79 -86 -64 0 32
31 271 36 279 2 5 6 47 8 95 4 100 3 99 123 161 39 21 70 39 69 41 -2 1 -41
-11 -86 -28 -46 -16 -84 -29 -85 -27 -1 1 2 124 6 272 10 364 9 529 -2 455 -4
-30 -44 -190 -88 -355 -44 -165 -83 -331 -86 -370 -4 -38 -9 -77 -11 -86 -6
-23 -110 -99 -135 -99 -35 0 -109 22 -109 33 0 5 20 75 44 156 115 382 208
687 212 692 8 13 144 703 141 713 -2 6 -8 -5 -12 -24 -4 -19 -66 -156 -137
-303 l-129 -269 -120 -406 c-66 -224 -131 -443 -144 -487 -23 -77 -27 -82 -64
-99 -36 -15 -111 -88 -111 -107 0 -3 -20 -4 -45 -1 -115 12 -185 -40 -299
-225 -38 -62 -70 -112 -71 -110 0 1 4 96 10 210 9 182 12 210 28 218 9 6 17
14 17 20 0 6 -7 6 -20 -1 -18 -9 -19 -8 -15 17 2 16 6 84 8 153 4 102 3 115
-5 70 -6 -30 -27 -109 -49 -175 -38 -116 -40 -121 -84 -148 -24 -16 -67 -49
-95 -74 l-50 -45 -77 30 c-43 16 -94 35 -115 41 l-36 12 40 82 c97 199 339
478 510 590 27 16 46 32 43 35 -6 7 -162 -56 -205 -83 -19 -12 -42 -25 -50
-30 -40 -24 140 194 224 271 39 35 68 64 64 64 -14 0 -158 -85 -208 -123 -124
-93 -286 -287 -404 -484 -61 -101 -165 -252 -273 -399 -33 -46 -77 -110 -97
-143 l-36 -59 -41 10 c-37 10 -40 13 -34 37 4 14 18 39 33 55 24 25 24 27 5
17 -12 -6 -23 -11 -25 -11 -2 0 10 89 28 198 17 108 34 217 38 242 l6 45 -16
-50 c-8 -27 -64 -156 -125 -285 l-109 -235 -37 2 c-164 7 -203 7 -241 0 l-42
-7 35 70 c19 38 38 70 40 70 3 0 38 -9 77 -20 74 -20 144 -24 188 -10 14 4 19
8 12 9 -7 1 -11 4 -9 9 3 4 -16 7 -42 8 -43 1 -176 37 -194 53 -4 4 19 45 50
91 77 112 240 275 321 320 85 47 107 65 58 45 -22 -8 -41 -14 -43 -12 -5 6
134 100 185 126 24 12 42 25 39 28 -10 9 -181 -49 -257 -87 -136 -69 -341
-241 -478 -403 -40 -48 -41 -48 -79 -38 -57 16 -123 13 -168 -8 -42 -19 -108
-84 -139 -137 -12 -20 -45 -45 -90 -69 -39 -21 -88 -51 -108 -67 -21 -16 -74
-47 -120 -69 -99 -49 -202 -114 -257 -165 -23 -20 -43 -35 -45 -33 -5 5 227
356 298 452 41 55 53 66 73 62 13 -3 35 -7 49 -10 14 -3 23 -2 20 3 -3 6 -22
13 -41 16 -19 4 -35 9 -35 12 0 3 35 47 78 97 160 190 316 330 455 407 32 18
57 34 55 36 -10 9 -166 -43 -243 -81 -123 -60 -237 -149 -384 -299 l-124 -127
-41 6 c-93 14 -249 -28 -347 -94 -69 -46 -89 -53 -44 -16 113 95 249 173 347
199 49 14 50 15 18 15 -71 1 -272 -56 -372 -107 -54 -27 -98 -47 -98 -43 0 3
9 60 20 126 30 184 32 203 21 180 -9 -18 -10 -17 -11 10 -1 24 -5 17 -19 -32
-10 -34 -51 -134 -91 -222 -68 -150 -92 -183 -106 -148 -2 7 2 123 11 257 15
235 15 308 1 198 -9 -70 -147 -468 -162 -468 -20 0 -101 -78 -154 -150 -29
-39 -54 -70 -55 -68 -3 4 25 232 30 236 2 2 27 -1 56 -7 71 -16 72 -7 2 16
-51 17 -58 23 -55 44 1 13 27 240 57 504 30 264 62 536 70 605 8 72 16 266 18
460 2 184 2 317 0 295 -2 -22 -40 -173 -84 -336 l-79 -297 -50 -443 c-27 -244
-57 -517 -66 -606 l-18 -163 -81 0 c-99 0 -178 -19 -269 -65 -65 -33 -68 -33
-62 -12 9 34 25 368 29 597 2 136 0 190 -6 160 -5 -25 -40 -164 -79 -309 -58
-220 -73 -294 -89 -438 l-19 -173 -65 -87 c-36 -49 -90 -133 -120 -188 -45
-83 -55 -95 -55 -70 0 17 14 242 30 500 28 437 30 496 23 845 -3 206 -10 365
-14 355 -4 -11 -8 -35 -8 -54 -1 -19 -28 -169 -61 -335 l-60 -301 -35 -630
c-19 -346 -38 -677 -41 -735 -5 -79 -16 -140 -46 -244 -89 -314 -165 -680
-219 -1051 -14 -100 -28 -163 -36 -168 -9 -6 -13 -36 -13 -105 0 -53 -9 -185
-20 -292 -11 -107 -23 -259 -27 -337 -6 -136 -5 -143 13 -143 10 0 37 -7 59
-15 60 -21 95 -19 95 5 0 16 7 20 30 20 17 0 30 -4 30 -9 0 -10 43 -25 98 -35
29 -5 32 -3 32 20 l0 26 93 -5 c108 -7 125 -9 154 -25 30 -17 40 -15 46 8 5
18 14 20 86 20 63 0 90 -5 127 -22 41 -21 47 -21 57 -7 11 15 17 15 64 -1 56
-18 63 -17 63 12 0 18 8 19 118 15 72 -2 148 -12 199 -24 45 -11 85 -18 88
-15 3 3 5 14 5 24 0 28 159 26 224 -3 28 -12 54 -18 64 -13 9 4 21 6 27 5 77
-19 98 -18 102 0 5 17 7 18 17 4 6 -9 30 -16 59 -18 42 -2 48 0 53 20 6 23 8
23 155 23 135 0 155 -2 208 -24 l59 -24 6 24 6 24 224 0 c203 0 229 -2 272
-20 37 -16 49 -18 55 -8 7 10 17 10 54 -3 l45 -17 6 25 c7 25 8 25 101 21 51
-1 97 -8 101 -14 4 -5 28 -15 55 -21 45 -10 48 -9 53 13 7 29 5 29 54 4 49
-25 57 -25 65 0 6 19 15 20 174 20 92 0 171 -4 176 -9 6 -5 27 -14 48 -21 33
-10 40 -10 50 4 11 15 16 16 49 1 48 -20 55 -19 63 5 6 18 15 20 118 20 90 0
121 -4 156 -20 54 -25 61 -25 61 0 0 20 7 20 300 20 260 0 300 -2 300 -15 0
-22 57 -20 63 3 4 13 5 13 6 -4 1 -15 9 -23 26 -26 29 -6 35 -2 35 24 0 16 10
18 125 18 91 0 126 -3 132 -13 9 -15 88 -35 116 -29 9 2 17 12 17 23 0 18 9
19 163 19 134 0 173 -4 226 -20 35 -11 71 -18 80 -15 9 2 40 1 69 -4 51 -8 52
-7 52 17 0 22 3 24 43 19 23 -2 69 -12 102 -20 72 -19 112 -21 117 -6 3 9 9 9
25 0 31 -16 40 -14 46 10 6 21 10 21 139 17 73 -2 142 -9 153 -15 11 -6 41
-14 68 -18 43 -7 47 -6 47 14 0 17 6 21 33 21 18 0 52 -9 75 -20 52 -25 69
-25 77 -1 6 20 6 20 51 0 61 -26 104 -26 104 1 0 19 7 20 90 20 62 0 91 -4 97
-13 4 -7 29 -18 56 -24 46 -10 47 -10 47 13 0 20 5 24 29 24 16 0 42 -5 57
-10 21 -8 29 -8 36 2 6 10 8 9 8 -3 0 -9 10 -19 23 -23 34 -9 37 -8 37 15 0
20 4 21 105 17 59 -1 109 -8 113 -14 8 -11 99 -34 107 -26 3 3 5 14 5 24 0 14
8 18 34 18 19 0 36 -4 38 -10 4 -11 124 -41 132 -32 3 3 6 14 6 24 0 16 9 18
80 18 57 0 81 -4 87 -14 4 -8 29 -17 56 -21 40 -6 47 -5 47 9 0 17 22 15 78
-5 35 -13 52 -11 52 6 0 14 3 14 30 0 38 -20 47 -19 55 5 8 26 49 26 110 0 26
-11 50 -20 55 -20 4 0 10 9 13 20 7 26 39 26 96 0 54 -25 58 -25 66 0 6 19 15
20 216 20 176 0 215 -3 242 -17 18 -9 57 -18 88 -19 50 -3 57 -1 62 16 5 19
14 20 231 20 186 0 226 -2 226 -14 0 -9 17 -16 48 -20 26 -4 55 -9 65 -12 13
-4 17 1 17 20 0 29 8 33 24 12 6 -8 34 -19 63 -24 49 -9 52 -8 57 14 5 19 13
24 38 24 17 0 36 -6 42 -14 6 -8 21 -17 34 -21 17 -5 22 -2 22 12 1 17 2 17
13 1 7 -9 24 -18 37 -20 19 -2 25 2 25 17 0 18 8 20 89 23 74 2 91 0 99 -13 5
-10 20 -15 35 -14 15 1 34 -1 42 -4 42 -17 80 -11 80 13 0 25 9 25 90 0 81
-25 87 -25 95 0 6 19 8 19 43 4 20 -9 43 -18 50 -21 8 -3 15 3 19 16 5 18 13
21 65 21 39 0 72 -7 98 -20 22 -11 44 -20 50 -20 5 0 10 9 10 20 0 19 7 20
120 20 l119 0 3 393 3 392 72 149 c69 140 170 326 178 326 2 0 20 -24 40 -54
38 -58 106 -130 137 -147 13 -7 -4 36 -56 138 l-74 148 60 90 c138 207 188
259 232 242 21 -8 77 -113 182 -344 52 -114 108 -231 125 -260 28 -49 118
-153 132 -153 3 0 -16 51 -43 113 -26 61 -67 157 -90 212 -54 129 -123 266
-161 322 -29 41 -186 184 -233 210 -59 34 -93 12 -197 -130 -46 -62 -86 -116
-90 -120 -4 -5 -27 22 -51 60 -45 69 -96 128 -134 154 l-21 14 35 138 c30 116
38 137 54 137 17 0 18 2 5 14 -11 11 -12 26 -6 63 4 26 8 55 8 64 1 13 11 15
56 11 30 -2 55 -2 55 0 0 5 52 157 66 192 7 17 3 16 -27 -6 -38 -28 -119 -71
-124 -66 -4 3 57 404 70 468 4 18 3 21 -4 10 -5 -8 -12 -31 -16 -50 -6 -31
-146 -343 -151 -337 -1 1 6 52 16 112 19 116 19 146 0 74 -6 -24 -34 -96 -62
-160 l-51 -116 -45 13 c-25 8 -67 14 -94 14 -43 0 -48 2 -48 23 0 29 92 154
177 241 83 83 157 142 243 190 91 50 60 45 -85 -15 -124 -51 -232 -114 -292
-172 l-33 -31 0 70 c0 38 3 100 7 137 6 65 7 69 42 88 24 13 28 17 11 12 -14
-3 -33 -7 -42 -7 -10 0 -18 -3 -18 -7 0 -3 -12 -11 -27 -18 -27 -12 -27 -12
-10 7 10 11 52 44 92 73 41 29 73 54 71 56 -6 7 -177 -67 -218 -94 -72 -48
-74 -49 -44 -7 72 96 144 180 210 241 39 36 67 64 61 62 -48 -19 -162 -88
-213 -129 -34 -28 -62 -46 -62 -40 0 6 5 44 11 83 9 58 16 77 37 95 23 20 24
22 5 12 -30 -14 -30 -14 6 230 16 107 28 196 26 198 -1 2 -8 -21 -15 -50 -15
-61 -175 -426 -197 -448 -14 -13 -15 -11 -10 20 4 19 16 105 28 190 18 130 26
164 51 208 81 143 237 313 349 380 105 61 160 76 299 76 69 1 139 -3 155 -7
19 -5 26 -5 20 1 -17 16 -176 62 -257 74 -203 31 -394 -56 -565 -257 -31 -36
-57 -65 -59 -65 -3 0 -35 15 -72 34 -87 43 -156 65 -232 74 l-61 7 63 52 c73
62 169 114 253 138 61 18 207 24 275 11 31 -5 32 -5 10 5 -69 29 -217 59 -294
59 -172 0 -294 -56 -438 -202 l-98 -98 0 114 0 113 90 87 c49 47 87 86 84 86
-9 0 -109 -53 -137 -72 -16 -11 -31 -17 -35 -13 -4 4 -10 68 -13 143 -3 75 -7
112 -8 82 -1 -30 -12 -105 -24 -167 l-23 -112 -80 -83 c-44 -46 -98 -105 -120
-132 l-40 -48 -57 13 c-31 8 -57 16 -57 19 1 7 103 89 154 122 23 16 37 28 31
28 -25 0 -168 -61 -221 -94 -33 -20 -66 -41 -74 -46 -8 -4 -46 -16 -85 -24
-83 -19 -171 -61 -242 -115 -33 -25 -54 -35 -57 -28 -3 8 -5 7 -5 -2 -1 -8
-22 -37 -49 -65 -26 -28 -62 -69 -81 -91 l-33 -40 7 45 c3 25 9 54 11 65 4 16
3 17 -4 5 -6 -8 -13 -31 -17 -50 -9 -43 -56 -152 -63 -145 -6 5 -117 -55 -182
-98 -25 -17 -83 -67 -129 -111 -126 -122 -226 -253 -345 -451 -36 -60 -66
-106 -66 -101 0 4 16 65 35 134 178 637 401 1008 695 1154 72 36 94 43 147 43
33 0 59 4 56 9 -6 9 174 2 217 -8 53 -13 -42 25 -128 51 -87 26 -87 26 -442
27 l-355 0 -77 -31 c-128 -51 -241 -144 -347 -286 -20 -26 -37 -43 -39 -37 -2
6 1 95 7 198 l11 187 66 63 c37 34 63 62 59 62 -4 0 -31 -14 -61 -30 l-53 -31
5 293 c4 237 -9 848 -14 689z m-932 -999 c0 -9 -9 -48 -19 -85 -16 -53 -31
-81 -74 -130 -112 -128 -236 -313 -338 -505 l-34 -64 -75 6 c-64 4 -277 50
-288 61 -7 7 80 191 134 282 107 182 247 325 379 388 76 36 188 64 258 64 48
1 57 -2 57 -17z m1330 -263 c-69 -70 -133 -150 -179 -226 -32 -52 -48 -67
-126 -113 l-40 -24 24 39 c81 138 206 276 310 344 35 22 66 41 67 41 2 0 -23
-28 -56 -61z m1574 -57 c-9 -45 -22 -82 -28 -82 -6 0 -21 7 -33 15 l-21 15 45
70 c25 39 48 69 49 67 2 -2 -3 -40 -12 -85z m-2128 61 c-2 -10 -10 -125 -17
-256 -10 -210 -15 -246 -35 -295 -28 -68 -29 -52 -5 93 19 115 20 148 1 74 -6
-24 -29 -84 -51 -134 -23 -49 -46 -103 -53 -118 -9 -24 -15 -28 -36 -23 -14 3
-53 12 -88 20 -35 7 -65 16 -68 19 -14 13 181 384 302 574 38 61 60 81 50 46z
m705 -80 c-96 -109 -221 -333 -301 -539 -38 -100 -47 -113 -77 -128 -34 -16
-34 -16 -27 6 16 52 108 258 146 328 62 113 150 237 222 313 73 76 99 91 37
20z m1189 -48 c0 -2 -29 -48 -64 -102 -84 -130 -187 -322 -277 -517 -73 -157
-74 -159 -118 -178 -25 -10 -67 -35 -93 -54 -49 -35 -64 -42 -53 -24 3 5 10
73 15 150 l9 139 86 138 c85 136 211 311 277 386 27 31 44 40 98 52 67 14 120
19 120 10z m878 -15 c28 -7 52 -16 52 -22 0 -15 -60 -98 -72 -98 -5 0 -58 -21
-117 -46 -135 -58 -249 -134 -340 -225 l-71 -71 5 79 c10 149 14 162 60 242
42 72 50 80 103 104 123 55 241 67 380 37z m-699 -11 c17 -6 31 -13 31 -15 0
-3 -33 -37 -73 -77 -41 -39 -91 -92 -111 -117 l-38 -45 24 45 c81 149 122 220
128 220 4 0 21 -5 39 -11z m-2990 -209 c-10 -91 -19 -172 -19 -181 0 -13 -17
-18 -80 -25 -44 -6 -80 -6 -80 -2 0 18 189 382 195 376 2 -2 -5 -77 -16 -168z
m3635 16 c-58 -109 -120 -255 -174 -413 -46 -135 -55 -152 -78 -158 -14 -3
-59 -23 -101 -43 l-76 -37 -42 23 c-45 25 -52 42 -31 86 9 20 16 25 37 21 l26
-5 -25 11 c-25 11 -25 11 50 81 72 68 73 69 31 48 -53 -26 -52 -20 11 73 69
103 157 204 227 261 65 53 158 116 172 116 4 0 -9 -29 -27 -64z m-9057 -8 c-3
-8 -6 -5 -6 6 -1 11 2 17 5 13 3 -3 4 -12 1 -19z m6563 -165 c-21 -49 -52
-130 -71 -180 -21 -59 -39 -93 -48 -93 -11 0 -13 14 -8 76 6 62 12 83 39 122
39 57 118 162 122 162 2 0 -13 -39 -34 -87z m826 -30 c-84 -131 -216 -397
-278 -561 -17 -44 -29 -58 -80 -92 l-60 -41 7 103 c7 102 7 104 62 193 91 149
163 243 272 357 57 59 107 108 112 108 5 0 -11 -30 -35 -67z m911 -111 l-50
-149 -49 -10 c-26 -5 -48 -7 -48 -5 0 16 184 312 194 312 1 0 -20 -67 -47
-148z m-4727 122 c0 -3 -25 -33 -55 -67 -30 -33 -55 -64 -55 -69 0 -4 -7 -8
-15 -8 -19 0 -19 -1 6 81 l21 69 49 0 c27 0 49 -3 49 -6z m1304 -10 c55 -9
124 -14 153 -12 l52 5 -17 -33 c-10 -19 -38 -46 -63 -62 -37 -24 -67 -62 -154
-193 -60 -90 -136 -216 -169 -279 -34 -63 -71 -129 -83 -146 -12 -16 -45 -75
-73 -130 l-51 -99 6 53 c10 76 61 331 68 338 4 4 29 -3 57 -14 61 -25 66 -20
8 9 -71 36 -70 25 -27 192 34 131 103 356 116 380 7 11 67 8 177 -9z m-1180
-303 c-18 -159 -38 -300 -45 -313 -7 -12 -22 -30 -33 -38 -86 -60 -227 -225
-315 -369 -28 -47 -53 -86 -56 -89 -6 -7 70 281 100 378 41 128 114 313 128
322 7 4 9 8 4 8 -4 0 13 40 38 89 45 90 73 121 110 121 14 0 16 3 7 8 -9 6 -5
12 13 22 38 20 30 31 -11 14 -41 -17 -42 -19 23 74 24 34 50 62 57 62 9 0 5
-67 -20 -289z m642 197 c-6 -58 -19 -99 -64 -198 -31 -69 -59 -129 -64 -135
-12 -14 -10 12 17 179 14 85 25 157 25 160 0 6 80 66 88 66 2 0 1 -33 -2 -72z
m-1682 -17 c-15 -38 -36 -52 -48 -33 -5 9 54 86 61 79 2 -3 -4 -23 -13 -46z
m-2211 17 c-7 -10 -136 -182 -169 -226 -1 -2 -34 7 -73 19 l-71 23 23 24 c40
43 147 114 215 143 76 31 89 34 75 17z m4947 -8 c0 -11 -3 -20 -7 -20 -20 0
-53 13 -53 20 0 7 10 11 53 19 4 0 7 -8 7 -19z m-4262 -127 c-59 -78 -79 -99
-102 -101 l-28 -4 25 43 c41 68 95 128 135 148 20 11 39 18 40 16 2 -2 -29
-48 -70 -102z m1278 91 c30 -8 54 -19 54 -23 0 -4 -10 -16 -21 -27 -62 -55
-221 -285 -329 -474 -38 -66 -126 -167 -137 -156 -4 4 132 375 141 384 3 3 18
0 33 -7 l28 -12 -27 23 -28 23 61 143 61 142 55 0 c30 0 79 -7 109 -16z
m-3110 -26 c-7 -39 -46 -393 -46 -412 0 -10 -27 -12 -127 -8 -117 3 -134 2
-202 -22 -41 -14 -77 -24 -79 -22 -2 2 2 57 9 122 l13 118 55 54 c96 94 200
156 316 187 68 19 67 19 61 -17z m6822 20 c-55 -15 -117 -75 -219 -214 -50
-68 -93 -124 -95 -124 -4 0 1 11 83 215 56 137 51 133 183 133 74 0 80 -1 48
-10z m-3051 -102 c-46 -97 -52 -105 -95 -124 -25 -12 -47 -20 -48 -19 -2 1 18
38 44 82 43 74 120 165 140 165 5 0 -14 -47 -41 -104z m2275 74 l36 -10 -26
-83 c-15 -45 -27 -83 -27 -84 0 -1 -29 5 -65 12 -36 8 -86 14 -112 15 l-46 0
26 65 c40 103 87 122 214 85z m-2725 -20 c22 0 -6 -55 -38 -74 -16 -10 -58
-41 -91 -69 -68 -56 -68 -57 15 66 50 74 64 88 81 83 12 -3 26 -6 33 -6z
m4052 -69 c-20 -58 -21 -59 -45 -49 -13 6 -24 15 -24 20 0 11 70 88 81 88 4 0
-1 -27 -12 -59z m-5854 -98 c-72 -123 -91 -145 -106 -122 -6 10 -9 8 -9 -12 0
-20 -9 -30 -45 -47 -25 -12 -45 -20 -45 -17 0 8 70 105 108 150 18 22 50 50
70 62 20 13 30 23 22 23 -8 0 2 16 25 40 21 22 40 38 42 36 2 -2 -26 -53 -62
-113z m2403 74 c-6 -20 -15 -37 -20 -37 -11 0 -10 4 9 45 21 44 26 40 11 -8z
m2476 -24 c-14 -32 -46 -109 -71 -171 -42 -103 -49 -114 -84 -132 -21 -11 -41
-20 -44 -20 -3 0 -3 35 1 78 5 58 12 86 31 114 24 35 176 188 188 188 3 0 -7
-26 -21 -57z m-1659 -35 c-14 -35 -31 -89 -40 -120 l-16 -58 -44 0 -45 0 26
43 c29 46 136 197 140 197 1 0 -8 -28 -21 -62z m-3853 -6 l67 -7 -94 -143 -94
-143 -83 -41 c-96 -47 -138 -61 -138 -47 0 8 37 88 45 97 2 2 25 -6 50 -17 31
-14 43 -16 36 -7 -6 8 -25 19 -41 26 -17 7 -30 18 -30 24 0 14 72 134 129 215
37 51 48 61 65 56 12 -4 51 -10 88 -13z m2393 -48 c-5 -37 -12 -47 -38 -60
-18 -9 -47 -27 -64 -41 -18 -13 -33 -21 -33 -18 0 3 26 40 58 82 31 42 61 82
67 90 14 19 18 0 10 -53z m4050 46 c11 0 9 -14 -6 -67 -11 -38 -39 -144 -61
-237 -41 -163 -43 -169 -77 -192 -19 -13 -36 -22 -37 -21 -6 6 99 420 132 516
2 7 11 10 20 7 9 -3 22 -6 29 -6z m-5193 -21 c-18 -12 -35 -19 -38 -16 -3 3 7
12 23 21 42 23 53 19 15 -5z m408 -16 c0 -7 -70 -133 -74 -133 -1 0 6 30 15
68 10 37 18 68 18 70 2 5 41 1 41 -5z m3476 -35 c-4 -24 -32 -88 -63 -143
l-57 -100 -72 35 c-60 29 -73 39 -75 60 -1 17 -3 20 -6 8 -2 -10 -8 -18 -13
-18 -21 0 -21 25 0 81 19 50 28 62 59 75 47 20 146 42 195 43 l39 1 -7 -42z
m-3936 26 c0 -3 -12 -16 -27 -27 -16 -12 -47 -39 -70 -61 l-43 -38 11 31 c13
38 129 123 129 95z m1794 -26 c-6 -20 -64 -96 -64 -84 0 2 9 24 19 49 16 38
28 51 49 56 2 1 0 -9 -4 -21z m5007 -85 l-27 -108 -55 -7 c-30 -3 -69 -11 -86
-16 -18 -6 -33 -8 -33 -4 0 3 15 41 33 85 22 54 42 87 63 103 29 23 95 52 120
53 8 1 2 -36 -15 -106z m424 67 c3 -4 -14 -20 -37 -35 -31 -21 -39 -23 -35
-10 4 9 7 30 7 45 0 28 1 29 30 18 17 -5 32 -13 35 -18z m187 -36 c-13 -41
-38 -83 -83 -139 -35 -44 -89 -115 -119 -158 -36 -52 -56 -73 -62 -65 -4 7 -8
51 -8 98 l0 85 77 74 c79 75 203 174 210 168 2 -2 -5 -31 -15 -63z m-9228 9
c-7 -44 -25 -66 -48 -61 -13 2 -10 11 15 51 17 26 33 47 36 47 2 0 1 -17 -3
-37z m1371 -40 c-10 -14 -26 -41 -37 -60 -11 -18 -26 -33 -34 -33 -21 0 17 72
52 99 35 28 40 26 19 -6z m5340 -15 c-4 -18 -12 -37 -17 -43 -7 -7 -8 -2 -3
15 3 14 9 33 11 43 9 30 16 18 9 -15z m-3735 -128 c-29 -204 -28 -197 -62
-221 l-31 -22 6 109 c5 108 5 108 -8 49 -16 -73 -54 -185 -63 -185 -4 0 -35
11 -70 23 l-63 23 71 95 c69 92 229 273 236 267 1 -2 -6 -64 -16 -138z m4425
113 c-10 -43 -57 -176 -68 -190 -5 -7 -19 -13 -32 -13 -20 0 -18 7 37 115 32
63 61 115 64 115 2 0 2 -12 -1 -27z m2400 -183 c-56 -169 -91 -235 -81 -154 3
21 7 82 10 134 3 79 2 87 -6 50 -34 -158 -191 -560 -218 -560 -3 0 26 127 65
283 l71 282 57 56 c31 31 78 71 104 89 46 30 48 30 51 10 2 -11 -22 -97 -53
-190z m-7814 113 c-15 -59 -26 -78 -63 -114 -24 -24 -54 -57 -67 -74 -16 -21
-13 -12 9 30 38 72 134 234 137 231 1 -1 -6 -34 -16 -73z m1336 -61 l-42 -112
-47 0 c-27 0 -48 3 -48 6 0 18 168 229 176 222 1 -2 -16 -54 -39 -116z m4528
31 c-10 -75 -14 -82 -35 -76 -11 3 -20 7 -20 9 0 7 54 114 58 114 2 0 0 -21
-3 -47z m-8171 15 c-3 -7 -34 -26 -69 -42 l-65 -29 -35 24 c-19 13 -35 27 -35
31 0 11 80 26 147 27 46 1 61 -2 57 -11z m1601 -30 c-14 -24 -30 -50 -35 -58
-4 -8 -11 -12 -15 -8 -10 9 47 108 63 108 9 0 5 -13 -13 -42z m481 -50 c-29
-46 -61 -85 -71 -86 -9 -2 -16 1 -14 7 5 12 129 161 135 161 2 0 -20 -37 -50
-82z m3799 30 l36 -42 -67 -34 c-36 -18 -68 -31 -71 -29 -10 11 18 123 34 135
24 18 28 16 68 -30z m-6440 -35 c-5 -39 -16 -59 -56 -103 l-50 -55 36 80 c42
90 67 136 73 130 2 -2 1 -25 -3 -52z m515 12 c-24 -25 -37 -32 -44 -24 -8 7
-7 13 4 19 8 5 24 16 35 24 36 28 39 17 5 -19z m1344 -22 c-16 -27 -48 -84
-71 -128 -31 -61 -43 -76 -48 -62 -4 9 -1 32 6 49 13 32 126 188 136 188 3 0
-8 -21 -23 -47z m-518 12 c-9 -14 -63 -108 -121 -210 -97 -173 -145 -249 -151
-242 -8 8 34 235 47 255 8 12 28 27 44 31 17 6 22 10 12 10 -17 1 -16 5 8 34
31 38 156 147 169 147 4 0 1 -11 -8 -25z m8114 8 c-1 -10 -19 -47 -40 -83
l-40 -65 0 72 c0 69 1 72 28 81 40 15 52 14 52 -5z m-2620 -40 c-10 -27 -28
-73 -39 -103 l-21 -55 6 75 c5 62 11 80 32 103 37 39 43 34 22 -20z m-6118
-10 c-15 -31 -17 -33 -20 -14 -4 22 13 51 29 51 5 0 1 -16 -9 -37z m8645 20
c-23 -83 -43 -143 -47 -143 -3 0 -4 30 -2 67 2 48 8 72 20 81 23 17 35 15 29
-5z m-9201 -40 c-19 -27 -26 -32 -26 -18 0 18 39 69 48 61 2 -3 -8 -22 -22
-43z m252 -35 c-101 -121 -202 -282 -294 -473 l-53 -110 5 65 c10 123 153 378
292 519 54 55 75 72 84 63 8 -8 0 -25 -34 -64z m6009 -75 c-45 -112 -108 -222
-128 -223 -3 0 1 39 8 88 8 48 14 96 14 106 0 11 8 29 18 42 19 24 134 125
138 121 1 -2 -21 -62 -50 -134z m2871 115 c-3 -7 -20 -57 -37 -110 -29 -88
-35 -98 -57 -98 -13 0 -24 2 -24 4 0 26 67 185 83 198 26 21 41 23 35 6z
m-4099 -148 c-37 -141 -114 -340 -132 -340 -4 0 -5 10 -3 23 3 12 13 85 22
162 8 77 19 145 22 152 15 25 117 153 124 153 3 0 -11 -68 -33 -150z m2971
137 c0 -2 -9 -12 -20 -22 -24 -21 -27 -14 -4 9 15 15 24 20 24 13z m-597 -94
c-5 -15 -13 -19 -21 -14 -10 6 -9 16 5 47 16 36 18 37 21 14 1 -14 -1 -36 -5
-47z m-3202 34 c-10 -9 -11 -8 -5 6 3 10 9 15 12 12 3 -3 0 -11 -7 -18z
m-1848 -82 c-24 -47 -47 -85 -49 -85 -3 0 -3 24 1 53 9 66 39 117 69 117 22 0
22 -3 -21 -85z m1617 70 c0 -10 -43 -120 -50 -128 -4 -4 -26 -5 -50 -1 l-42 7
6 45 c3 25 7 47 9 48 3 4 107 32 120 33 4 1 7 -1 7 -4z m3069 -51 c-7 -27 -18
-61 -25 -76 -21 -40 -114 -184 -114 -175 0 13 143 308 147 303 2 -2 -1 -25 -8
-52z m2477 30 c-4 -9 -9 -15 -11 -12 -3 3 -3 13 1 22 4 9 9 15 11 12 3 -3 3
-13 -1 -22z m-5348 -91 c-16 -54 -31 -104 -33 -111 -4 -10 -9 -10 -26 -1 -30
15 -21 62 28 145 55 94 66 82 31 -33z m-2077 10 c-11 -21 -20 -35 -21 -32 0
14 31 81 36 76 3 -3 -4 -22 -15 -44z m-2293 -98 c-8 -67 -19 -106 -43 -155
-37 -73 -101 -223 -146 -338 l-29 -77 6 85 c6 91 42 215 100 353 33 77 115
230 120 224 1 -1 -2 -42 -8 -92z m3651 84 l50 -10 -70 -87 c-70 -87 -142 -198
-194 -302 l-28 -55 -17 39 c-17 38 -17 39 16 122 42 103 110 251 130 282 16
25 39 27 113 11z m-1904 -29 c3 -10 0 -32 -8 -47 -8 -15 -29 -70 -47 -121 -18
-51 -34 -91 -36 -90 -1 2 2 39 6 83 6 51 19 101 36 138 30 61 39 68 49 37z
m7965 -25 c0 -15 -6 -25 -14 -25 -23 0 -28 17 -10 34 21 21 24 20 24 -9z
m-1601 -97 c-54 -122 -59 -131 -59 -102 2 54 21 105 60 157 23 31 44 57 46 57
2 0 -19 -50 -47 -112z m-1552 0 c-8 -41 -26 -95 -40 -119 -15 -24 -27 -40 -27
-34 0 15 74 235 78 231 2 -2 -3 -37 -11 -78z m1243 -54 c-15 -83 -25 -112 -54
-155 -31 -46 -36 -50 -36 -29 1 40 26 185 35 201 11 18 69 88 72 86 1 -1 -7
-48 -17 -103z m3108 29 c-13 -27 -23 -49 -24 -51 -1 -2 -28 10 -60 26 l-58 29
39 21 c22 12 59 21 82 22 l43 0 -22 -47z m-6878 10 c0 -5 -7 -17 -15 -27 -15
-20 -15 -20 -15 0 0 12 3 24 7 27 9 9 23 9 23 0z m5670 -12 c0 -14 -5 -18 -20
-14 -11 3 -20 12 -20 19 0 8 9 14 20 14 13 0 20 -7 20 -19z m-513 -9 c10 -6 7
-24 -9 -75 -12 -37 -26 -67 -31 -67 -4 0 -5 4 -2 10 3 6 -1 7 -9 4 -20 -8 -20
-1 0 67 22 74 25 78 51 61z m-4887 -29 c0 -23 -34 -123 -42 -123 -6 0 -8 10
-5 23 4 12 9 41 13 65 4 26 12 42 20 42 8 0 14 -3 14 -7z m5362 -42 c-20 -35
-26 -34 -16 3 3 14 12 26 20 26 10 0 9 -6 -4 -29z m1196 -17 c2 -1 -2 -13 -9
-26 -7 -12 -25 -72 -40 -131 -20 -81 -37 -124 -68 -170 -22 -34 -41 -55 -41
-47 0 18 50 380 56 397 2 9 15 8 51 -4 26 -9 49 -17 51 -19z m-9564 -77 c-40
-117 -97 -344 -120 -482 -14 -87 -23 -111 -65 -181 -26 -44 -68 -118 -93 -165
-25 -46 -46 -81 -46 -78 0 13 50 251 70 330 30 121 94 322 129 407 27 64 150
276 157 269 1 -1 -13 -46 -32 -100z m7859 -19 c-4 -18 -24 -59 -45 -92 -21
-32 -38 -64 -38 -69 0 -6 -3 -8 -6 -5 -3 3 2 34 11 69 30 119 34 129 61 129
21 0 23 -3 17 -32z m-4934 -133 c-18 -63 -34 -113 -36 -111 -4 3 19 100 49
211 6 22 13 34 15 27 3 -7 -10 -64 -28 -127z m-866 -69 c-19 -47 -32 -66 -44
-66 -36 0 -35 11 20 154 l11 28 20 -25 c19 -24 19 -24 -7 -91z m-769 28 c-17
-71 -30 -97 -44 -89 -5 3 6 41 23 84 18 44 33 78 35 77 1 -2 -5 -34 -14 -72z
m3657 -85 c-28 -114 -100 -497 -117 -614 -10 -71 -58 -168 -84 -170 -14 -1
-19 3 -16 14 3 9 53 210 112 446 97 388 119 464 131 452 2 -2 -10 -60 -26
-128z m-1335 43 c-12 -11 -17 7 -9 34 l8 29 3 -28 c2 -16 1 -31 -2 -35z
m-2966 -61 c-11 -40 -11 -40 -30 -21 -19 19 -19 23 -5 49 16 32 38 45 43 25 2
-7 -2 -31 -8 -53z m4533 -31 c-11 -67 -21 -94 -49 -132 -20 -26 -37 -48 -39
-48 -5 0 36 119 70 203 15 37 29 67 30 65 2 -2 -4 -41 -12 -88z m-1583 -54
c-10 -90 -17 -119 -38 -153 -15 -24 -31 -43 -35 -43 -10 0 -7 18 30 175 46
197 63 206 43 21z m-1601 4 c-25 -69 -103 -221 -85 -166 3 10 18 64 31 120 33
132 31 126 59 126 l25 0 -30 -80z m3740 -3 c-11 -43 -43 -134 -71 -204 -51
-125 -52 -126 -65 -97 -18 44 -17 53 32 164 76 171 109 229 122 217 1 -2 -7
-37 -18 -80z m4089 -81 l63 -114 -71 -119 c-40 -65 -108 -191 -153 -280 l-81
-163 -39 0 c-32 0 -37 3 -33 18 3 9 51 188 106 397 55 209 103 389 107 399 5
19 6 18 22 -3 9 -12 44 -73 79 -135z m-5743 42 c-4 -35 -33 -139 -64 -233 -32
-93 -66 -200 -76 -237 -10 -38 -22 -68 -28 -68 -5 0 -7 8 -5 18 18 66 174 582
176 582 2 0 1 -28 -3 -62z m-3492 -77 c13 -23 12 -38 -4 -133 -10 -58 -24
-121 -31 -138 l-14 -33 -43 101 -43 101 42 88 41 88 18 -24 c11 -14 25 -36 34
-50z m7779 -12 c-4 -26 -6 -29 -14 -15 -6 11 -6 22 2 32 17 19 17 19 12 -17z
m-33 -109 l22 -61 -67 -159 c-41 -98 -72 -160 -81 -160 -10 0 -13 9 -9 33 3
17 8 83 11 146 4 63 11 124 17 135 18 34 77 126 82 126 2 0 13 -27 25 -60z
m-9279 -205 c-15 -94 -30 -186 -32 -205 -2 -27 -8 -36 -25 -38 -13 -2 -23 0
-23 5 -1 13 103 413 106 410 2 -1 -10 -79 -26 -172z m1413 22 l47 -102 -29
-109 c-17 -59 -31 -109 -33 -110 -2 -2 -45 2 -97 8 l-93 10 6 45 c5 44 134
362 146 361 3 -1 26 -47 53 -103z m-1729 -73 c-44 -159 -45 -162 -38 -94 4 49
63 234 71 226 2 -2 -13 -61 -33 -132z m4807 34 c-8 -66 -11 -71 -44 -66 l-25
3 31 68 c16 37 33 64 37 60 4 -4 4 -34 1 -65z m2028 30 c0 -13 -4 -32 -9 -43
-7 -15 -9 -10 -9 23 -1 23 4 42 9 42 6 0 10 -10 9 -22z m1670 -124 c-7 -49
-12 -90 -13 -91 -1 -1 -13 -4 -29 -8 -24 -6 -27 -5 -27 19 0 24 70 179 78 172
1 -2 -2 -44 -9 -92z m-339 -229 c-7 -8 -16 -15 -21 -15 -5 0 -9 7 -9 15 0 9 9
15 21 15 18 0 19 -2 9 -15z"/>
<path d="M12095 3123 c-23 -68 -38 -123 -35 -122 3 0 16 14 30 31 28 37 59
120 60 163 0 67 -17 45 -55 -72z"/>
</g>
</svg>
