<svg height="512" viewBox="0 0 128 128" width="512" xmlns="http://www.w3.org/2000/svg"><g><path d="m64 97a19.9 19.9 0 0 1 19.9 19.9v4.6a0 0 0 0 1 0 0h-39.8a0 0 0 0 1 0 0v-4.6a19.9 19.9 0 0 1 19.9-19.9z" fill="#e8b5ad"/><path d="m85.723 64c2.191-17.669 9.116-31.941 15.876-40.614a10.45 10.45 0 1 0 -16.861-12.334c-7.938 11.923-12.486 31.148-12.538 52.948z" fill="#e8b5ad"/><path d="m78.336 58c.771-18.086 4.834-33.761 11.4-43.624a4.217 4.217 0 0 1 3.576-1.876 4.519 4.519 0 0 1 2.963 1.108 4.446 4.446 0 0 1 .592 6.09c-7.887 10.117-13.7 23.849-16.3 38.3z" fill="#ffd5c8"/><path d="m42.277 64c-2.191-17.669-9.116-31.941-15.877-40.614a10.45 10.45 0 1 1 16.862-12.334c7.938 11.923 12.486 31.148 12.538 52.948z" fill="#e8b5ad"/><path d="m49.664 58c-.771-18.086-4.834-33.761-11.4-43.624a4.217 4.217 0 0 0 -3.576-1.876 4.519 4.519 0 0 0 -2.963 1.108 4.446 4.446 0 0 0 -.592 6.09c7.887 10.117 13.7 23.849 16.3 38.3z" fill="#ffd5c8"/><ellipse cx="64" cy="75.058" fill="#ffd5c8" rx="39.808" ry="28.75"/><g fill="#e8b5ad"><g><path d="m70.308 95.887c-.176 0-.352-.008-.53-.024-2.764-.249-5.407-2.443-7.25-6.02a1.75 1.75 0 0 1 3.111-1.6c1.264 2.453 2.929 4 4.453 4.137a2.654 2.654 0 0 0 2.354-1.235 1.75 1.75 0 0 1 2.775 2.133 6.156 6.156 0 0 1 -4.913 2.609z"/><path d="m57.692 95.887a6.156 6.156 0 0 1 -4.913-2.612 1.75 1.75 0 1 1 2.775-2.133 2.65 2.65 0 0 0 2.354 1.235c1.524-.137 3.189-1.684 4.453-4.137a1.75 1.75 0 1 1 3.111 1.6c-1.843 3.577-4.486 5.771-7.25 6.02-.178.019-.354.027-.53.027z"/></g><path d="m67 87.458c0 1.657-1.343 3.875-3 3.875s-3-2.218-3-3.875 1.343-2.125 3-2.125 3 .467 3 2.125z"/><g><circle cx="76.833" cy="67.75" r="3"/><circle cx="51.167" cy="67.75" r="3"/></g></g></g></svg>